# xmcd CD database file
#
# Track frame offsets:
#	150
#	20122
#	35655
#	57921
#	81281
#	98358
#	112169
#	128597
#	152107
#	159429
#	175174
#
# Disc length: 2829 seconds
#
# Revision: 1
# Processed by: cddbd v1.5.2PL0 Copyright (c) Steve Scherf et al.
# Submitted via: CDex 1.70beta2
#
DISCID=870b0b0b
DTITLE=Tunng - And Then We Saw Land
DYEAR=2010
DGENRE=Alternative
TTITLE0=Hustle
TTITLE1=It Breaks
TTITLE2=Don't Look Down or Back
TTITLE3=The Roadside
TTITLE4=October
TTITLE5=Sashimi
TTITLE6=With Whiskey
TTITLE7=By Dusk They Were in the City
TTITLE8=These Winds
TTITLE9=Santiago
TTITLE10=Weekend Away
EXTD=YEAR: 2010
EXTT0=
EXTT1=
EXTT2=
EXTT3=
EXTT4=
EXTT5=
EXTT6=
EXTT7=
EXTT8=
EXTT9=
EXTT10=
PLAYORDER=
